<svg clip-rule="evenodd" fill-rule="evenodd" height="512" image-rendering="optimizeQuality" shape-rendering="geometricPrecision" text-rendering="geometricPrecision" viewBox="0 0 2.33333 2.33333" width="512" xmlns="http://www.w3.org/2000/svg"><g id="Layer_x0020_1"><g fill="#27a2db"><path d="m.507748.834083c0 .0291614.0236063.0527677.0541575.0527677.0291614 0 .0527677-.0236063.0527677-.0527677 0-.0305512-.0236063-.0541575-.0527677-.0541575-.0291654 0-.0541575.0236063-.0541575.0541575z"/><path d="m.847969.834083c0 .0319409.0263819.0583228.0583228.0583228h.894299c.031937 0 .0583228-.0263819.0583228-.0583228s-.0263819-.0583268-.0583228-.0583268h-.894299c-.031937 0-.0583228.0263858-.0583228.0583268z"/><path d="m1.80059 1.12431h-.894299c-.031937 0-.0583228.0263858-.0583228.0583268 0 .031937.0263819.0583228.0583228.0583228h.894299c.031937 0 .0583228-.0263819.0583228-.0583228s-.0263819-.0583268-.0583228-.0583268z"/><path d="m.561906 1.2368c.0291614 0 .0527677-.0236102.0527677-.0541575 0-.0291614-.0236063-.0527717-.0527677-.0527717-.0291654 0-.0541575.0236102-.0541575.0527717 0 .0291614.0236063.0541575.0541575.0541575z"/><path d="m.614673 1.53258c0-.0305512-.0236063-.0541575-.0527677-.0541575-.0291654 0-.0541575.0236063-.0541575.0541575s.0236063.0541575.0541575.0541575c.0291614 0 .0527677-.0236063.0527677-.0541575z"/><path d="m.906291 1.47426c-.031937 0-.0583228.0263819-.0583228.0583228s.0263819.0583268.0583228.0583268h.894299c.031937 0 .0583228-.0263858.0583228-.0583268 0-.0319409-.0263819-.0583228-.0583228-.0583228z"/></g><path d="m1.7992 1.63118h-.892909c-.0541575 0-.0985945-.044437-.0985945-.0985984s.0444331-.0985945.0985945-.0985945h.894299c.0541575 0 .0985945.0444331.0985945.0985945s-.0458268.0985984-.0999843.0985984zm-1.14426-.0985984c0 .0527717-.0416575.0944291-.0930394.0944291s-.0944291-.0416575-.0944291-.0944291c0-.0527677.0416575-.0944291.0944291-.0944291.0513819 0 .0930394.0416614.0930394.0944291zm-.137476.465205 1.33172-.00000394c.0819331 0 .148587-.0666535.148587-.148587v-1.33172c0-.0805433-.0666535-.147197-.148587-.147197h-1.33172c-.0819331 0-.147197.0652638-.147197.147197v1.33173c0 .0819291.0652638.148587.147197.148587zm1.28173-.716551h-.892909c-.0541575 0-.0985945-.0458268-.0985945-.0985945 0-.0541575.0444331-.0985984.0985945-.0985984h.894299c.0541575 0 .0985945.044437.0985945.0985984-.00138583.0541575-.0458268.0985945-.0999843.0985945zm0-.349945h-.892909c-.0541575 0-.0985945-.044437-.0985945-.0985945 0-.0541614.0444331-.0985984.0985945-.0985984l.894299.00000394c.0541575 0 .0985945.044437.0985945.0985945 0 .0541614-.0458268.0985945-.0999843.0985945zm-1.2373.158307c.0513819 0 .0930394.0416614.0930394.0930433s-.0416575.0944291-.0930394.0944291-.0944291-.0416614-.0944291-.0944291c0-.0513819.0416575-.0930433.0944291-.0930433zm0-.162472c-.0513819 0-.0944291-.0416575-.0944291-.0930394s.0416575-.0944291.0944291-.0944291c.0513819 0 .0930394.0416575.0930394.0944291 0 .0513819-.0416575.0930394-.0930394.0930394z" fill="#e4eaf8"/><path d="m.54524 1.61034c-.0513819 0-.0944291-.0416575-.0944291-.0944291 0-.0527677.0416575-.0944291.0944291-.0944291.0513819 0 .0930394.0416614.0930394.0944291 0 .0527717-.0416575.0944291-.0930394.0944291zm1.2859.409654h-1.33033c-.10415 0-.187469-.0847047-.187469-.188858v-1.33033c0-.10415.0833189-.187469.187469-.187469h1.33172c.10415 0 .187469.0833189.187469.187469v1.33173c0 .10276-.0847047.187465-.188858.187465zm-1.33033-1.66639c-.0819331 0-.147197.0652638-.147197.147197v1.33173c0 .0819291.0652638.148587.147197.148587l1.33172-.00000394c.0819331 0 .148587-.0666535.148587-.148587v-1.33172c0-.0805433-.0666535-.147197-.148587-.147197h-1.33172zm1.28173.561016h-.892909c-.0541575 0-.0985945-.044437-.0985945-.0985945 0-.0541614.0444331-.0985984.0985945-.0985984l.894299.00000394c.0541575 0 .0985945.044437.0985945.0985945 0 .0541614-.0458268.0985945-.0999843.0985945zm-.892909-.155531c-.031937 0-.0583228.0263858-.0583228.0583268 0 .0319409.0263819.0583228.0583228.0583228h.894299c.031937 0 .0583228-.0263819.0583228-.0583228s-.0263819-.0583268-.0583228-.0583268zm-.344386.151366c-.0513819 0-.0944291-.0416575-.0944291-.0930394s.0416575-.0944291.0944291-.0944291c.0513819 0 .0930394.0416575.0930394.0944291 0 .0513819-.0416575.0930394-.0930394.0930394zm0-.147197c-.0291654 0-.0541575.0236063-.0541575.0541575 0 .0291614.0236063.0527677.0541575.0527677.0291614 0 .0527677-.0236063.0527677-.0527677 0-.0305512-.0236063-.0541575-.0527677-.0541575zm1.2373.501307h-.892909c-.0541575 0-.0985945-.0458268-.0985945-.0985945 0-.0541575.0444331-.0985984.0985945-.0985984h.894299c.0541575 0 .0985945.044437.0985945.0985984-.00138583.0541575-.0458268.0985945-.0999843.0985945zm-.892909-.156921c-.031937 0-.0583228.0263858-.0583228.0583268 0 .031937.0263819.0583228.0583228.0583228h.894299c.031937 0 .0583228-.0263819.0583228-.0583228s-.0263819-.0583268-.0583228-.0583268zm-.344386.152756c-.0513819 0-.0944291-.0416614-.0944291-.0944291 0-.0513819.0416575-.0930433.0944291-.0930433.0513819 0 .0930394.0416614.0930394.0930433s-.0416575.0944291-.0930394.0944291zm0-.147201c-.0291654 0-.0541575.0236102-.0541575.0527717 0 .0291614.0236063.0541575.0541575.0541575.0291614 0 .0527677-.0236102.0527677-.0541575 0-.0291614-.0236063-.0527717-.0527677-.0527717zm1.2373.501311h-.892909c-.0541575 0-.0985945-.044437-.0985945-.0985984s.0444331-.0985945.0985945-.0985945h.894299c.0541575 0 .0985945.0444331.0985945.0985945s-.0458268.0985984-.0999843.0985984zm-.892909-.156921c-.031937 0-.0583228.0263819-.0583228.0583228s.0263819.0583268.0583228.0583268h.894299c.031937 0 .0583228-.0263858.0583228-.0583268 0-.0319409-.0263819-.0583228-.0583228-.0583228zm-.344386.00416535c-.0291654 0-.0541575.0236063-.0541575.0541575s.0236063.0541575.0541575.0541575c.0291614 0 .0527677-.0236063.0527677-.0541575s-.0236063-.0541575-.0527677-.0541575z" fill="#333"/></g></svg>